<svg width="20" height="20" viewBox="0 0 219 306" fill="none" xmlns="http://www.w3.org/2000/svg">
<g clip-path="url(#clip0_1329_16637)">
<path d="M142.01 209.581C141.564 209.593 141.117 209.614 140.67 209.614C101.126 209.616 61.5842 209.616 22.0401 209.612C21.7258 209.612 21.4095 209.554 21.0951 209.525L21.0894 209.474C21.0875 188.877 21.0855 168.282 21.0836 147.685C21.0836 145.769 21.0875 143.854 21.0894 141.938C21.4267 141.372 21.9864 141.556 22.4695 141.556C55.6114 141.551 88.7513 141.551 121.893 141.551C122.148 141.551 122.407 141.524 122.658 141.556C123.206 141.626 123.559 141.355 123.869 140.951C126.174 137.951 128.474 134.948 130.791 131.959C133.5 128.467 136.216 124.983 138.943 121.508C139.881 120.313 140.736 119.05 141.811 117.966C142.141 118.321 141.983 118.76 141.983 119.155C141.995 135.152 141.995 151.148 141.997 167.145C142.003 181.291 142.006 195.435 142.01 209.581Z" fill="#7189A8"/>
<path d="M142.01 209.581C142.006 195.437 142.003 181.291 142.001 167.147C141.999 151.15 141.999 135.154 141.987 119.157C141.987 118.76 142.144 118.323 141.815 117.968C141.822 117.855 141.832 117.742 141.84 117.627L141.845 117.619C141.966 117.61 142.089 117.6 142.21 117.591C142.269 117.589 142.33 117.591 142.39 117.596C142.827 118.246 143.423 117.74 143.906 117.742C161.464 117.781 179.02 117.775 196.578 117.767C196.973 117.767 197.412 117.932 197.765 117.593C197.876 117.589 197.989 117.585 198.1 117.583C198.108 118.189 198.121 118.797 198.121 119.403C198.123 149.053 198.121 178.702 198.121 208.352C198.121 209.714 197.972 209.834 196.619 209.637C196.306 209.591 195.982 209.618 195.662 209.618C178.288 209.618 160.914 209.618 143.54 209.616C143.032 209.612 142.52 209.591 142.01 209.581Z" fill="#566E8D"/>
<path d="M141.84 117.625C141.832 117.738 141.822 117.851 141.815 117.967C140.739 119.05 139.886 120.314 138.947 121.508C136.218 124.983 133.501 128.469 130.795 131.959C128.477 134.949 126.177 137.95 123.873 140.951C123.563 141.355 123.21 141.626 122.662 141.557C122.411 141.526 122.152 141.551 121.897 141.551C88.7551 141.551 55.6152 141.551 22.4733 141.557C21.9902 141.557 21.4305 141.371 21.0932 141.938C21.0663 141.875 21.0376 141.812 21.0107 141.748C20.9647 141.574 20.8401 141.557 20.6906 141.589C15.0398 141.585 9.38904 141.584 3.73633 141.568C3.40663 141.568 2.96193 141.756 2.76258 141.407C2.53831 141.016 2.9926 140.799 3.19386 140.538C6.41221 136.372 9.64398 132.214 12.8892 128.068C15.4922 124.745 18.0608 121.395 20.6542 118.062C20.7692 117.915 20.8363 117.729 20.9264 117.56C21.0855 117.568 21.2446 117.583 21.4037 117.583C39.9739 117.581 58.5422 117.577 77.1124 117.575C93.9517 117.572 110.791 117.568 127.63 117.562C128.203 117.56 128.778 117.56 129.352 117.558C133.133 117.566 136.915 117.572 140.697 117.583C141.079 117.585 141.458 117.612 141.84 117.625Z" fill="#8DA3BF"/>
<path d="M77.1124 117.577C58.5422 117.581 39.9739 117.583 21.4037 117.585C21.2446 117.585 21.0855 117.569 20.9264 117.562C18.7566 114.846 16.6116 112.108 14.482 109.364C12.4215 106.708 10.3551 104.052 8.31945 101.375C6.40263 98.8537 4.44747 96.3589 2.50189 93.8411C2.8335 93.5228 3.20537 93.657 3.52931 93.657C21.603 93.6474 39.6768 93.6512 57.7505 93.6359C58.3562 93.6359 58.8086 93.82 59.1498 94.2764C62.1688 98.3052 65.274 102.267 68.3985 106.217C71.358 109.958 74.2122 113.786 77.1124 117.577Z" fill="#96ABC6"/>
<path d="M142.39 117.594C142.33 117.589 142.269 117.587 142.21 117.589C142.259 117.391 142.309 117.195 142.361 116.998C144.28 114.52 146.197 112.041 148.121 109.567C150.745 106.194 153.379 102.829 155.999 99.452C157.376 97.6782 158.729 95.8872 160.094 94.1038C160.316 93.8123 160.579 93.6436 160.979 93.657C161.809 93.6839 162.639 93.6589 163.469 93.6589C180.682 93.6589 197.897 93.657 215.11 93.6647C215.566 93.6647 216.23 93.4327 216.439 93.8258C216.709 94.332 215.98 94.5525 215.71 94.9034C213.238 98.1116 210.669 101.249 208.267 104.509C206.109 107.439 203.715 110.185 201.641 113.182C200.573 114.726 199.287 116.116 198.098 117.575C197.987 117.579 197.874 117.583 197.763 117.585C179.306 117.59 160.849 117.592 142.39 117.594Z" fill="#566E8D"/>
<path d="M42.0517 250.857C46.3166 250.652 50.8653 250.474 55.4196 250.397C56.8764 250.372 58.3466 250.336 59.8073 250.259C64.0147 250.04 68.2317 250.209 72.4334 250.021C77.2216 249.806 82.0041 249.987 86.7885 249.86C101.857 249.467 116.925 249.709 131.993 249.743C136.423 249.753 140.864 249.711 145.29 249.925C148.512 250.083 151.738 249.895 154.949 250.109C157.502 250.28 160.057 250.1 162.593 250.303C164.763 250.478 166.929 250.347 169.091 250.476C172.331 250.667 175.576 250.735 178.817 250.875C181.228 250.98 183.644 251.089 186.051 251.26C189.847 251.528 193.648 251.732 197.433 252.154C199.86 252.424 202.3 252.572 204.677 253.16C205.15 253.277 205.965 253.216 205.938 253.885C205.913 254.493 205.122 254.535 204.625 254.631C202.168 255.103 199.691 255.435 197.194 255.659C193.655 255.977 190.115 256.24 186.567 256.428C184.253 256.551 181.934 256.641 179.626 256.819C176.469 257.063 173.314 256.844 170.165 257.009C165.741 257.239 161.311 257.254 156.887 257.429C153.919 257.546 150.952 257.398 147.996 257.594C143.5 257.891 139.001 257.657 134.506 257.77C118.353 258.177 102.198 257.933 86.0447 257.883C81.7434 257.87 77.4286 257.958 73.1311 257.715C70.0048 257.538 66.8746 257.749 63.7617 257.523C61.4001 257.352 59.0444 257.481 56.6886 257.358C51.4039 257.086 46.1135 257.019 40.823 256.949C37.3344 256.903 33.8477 256.612 30.3629 256.395C27.8001 256.236 25.2354 256.081 22.6822 255.81C19.8836 255.515 17.0832 255.21 14.3172 254.671C14.1638 254.641 14.0067 254.593 13.8686 254.518C13.5466 254.343 13.0444 254.301 13.0502 253.824C13.0559 253.25 13.631 253.27 13.9875 253.191C17.0295 252.524 20.1271 252.284 23.2189 251.966C26.3146 251.645 29.4275 251.594 32.5193 251.26C33.8132 251.12 35.1262 251.126 36.4239 251.087C38.2085 251.034 39.9796 250.779 42.0517 250.857Z" fill="#C2CFE0"/>
<path d="M31.1622 16.593C30.3342 16.3322 29.5425 15.941 28.6225 16.3706C28.218 16.5585 27.9075 15.8413 27.3823 16.012C27.2634 16.3667 27.8385 16.4396 27.6525 16.965C26.79 16.4453 26.2207 15.3983 24.969 15.4482C25.245 15.7665 25.475 16.0311 25.705 16.2958C25.6686 16.3341 25.6303 16.3686 25.5881 16.4012C25.4348 16.361 25.2143 16.3706 25.1415 16.2708C24.1218 14.8863 22.479 14.2478 21.3117 13.0531C20.8095 12.5373 20.2939 11.9716 20.5775 11.126C20.6044 11.0454 20.6178 10.9169 20.5718 10.8613C20.2287 10.4337 20.1079 10.0118 20.5871 9.61106C21.0932 9.18919 21.6586 9.09906 22.2797 9.3541C22.5864 9.47875 22.9084 9.81816 23.2381 9.51326C23.5678 9.20837 23.24 8.84978 23.1633 8.53338C22.6899 6.61771 22.6285 4.71546 23.1844 2.80362C23.3914 2.08836 23.7652 1.46898 24.1812 0.870693C25.0687 -0.404504 26.8149 -0.266437 27.9247 1.21778C28.3177 1.74511 28.2544 2.74609 28.933 2.79212C29.4352 2.82663 29.9623 2.13438 30.5182 1.84483C30.9341 1.62814 31.4057 1.49199 31.8696 1.40378C33.2708 1.13724 34.2656 1.9292 34.3039 3.35781C34.3653 5.67425 33.1998 7.48062 31.7967 9.17002C31.329 9.73379 30.8249 10.2669 30.3284 10.823C31.3808 11.3158 32.5404 11.9294 33.4624 12.9016C34.6413 14.1481 34.2253 15.5191 32.5673 16.0043C32.1322 16.1309 31.5188 15.8835 31.26 16.4971C31.2293 16.5278 31.1948 16.5604 31.1622 16.593Z" fill="#707683"/>
<path d="M111.675 90.1749C110.781 90.1749 109.886 90.1864 108.993 90.171C108.192 90.1576 107.772 89.7223 107.699 88.9323C107.517 86.9687 108.255 86.2994 110.204 86.0904C112 85.8987 113.821 86.1479 115.604 85.6072C117.718 84.9648 119.198 83.3022 119.191 81.3156C119.181 79.212 117.68 77.4843 115.458 76.9493C113.12 76.3855 110.806 76.2781 108.531 77.1909C108.157 77.3405 107.992 77.1506 107.816 76.9263C106.919 75.7872 107.243 74.0652 108.539 73.3941C109.325 72.9875 110.174 72.7344 111.094 72.698C113.998 72.5848 116.844 72.8399 119.421 74.2915C122.208 75.8601 124.128 78.2245 123.914 81.5074C123.639 85.7031 121.792 88.3359 117.339 89.5862C115.48 90.1078 113.593 90.2727 111.675 90.1749Z" fill="#707683"/>
<path d="M93.5089 70.535C93.5875 73.1141 92.0157 74.4622 90.4305 75.7623C89.7232 76.3414 88.8682 76.7345 88.1169 77.2638C86.8652 78.1478 86.5853 77.8927 85.9643 77.0874C85.4007 76.3587 85.7668 75.444 86.6812 74.8745C87.6779 74.2532 88.7072 73.676 89.5142 72.79C90.8349 71.3423 90.7467 69.8331 89.2669 68.5618C88.4293 67.8427 87.4345 68.0229 86.5297 68.1974C85.2704 68.439 84.1509 69.0699 83.2462 70.023C82.8993 70.3873 82.5466 70.884 81.9677 70.4333C81.4041 69.9961 81.0955 69.4074 81.362 68.6768C81.5019 68.2914 81.6763 67.8983 82.0175 67.6337C84.1184 66.0114 86.4051 64.9299 89.1462 65.4169C92.0368 65.9366 93.5127 67.7851 93.5089 70.535Z" fill="#707683"/>
<path d="M111.167 52.7741C109.856 52.8451 108.723 52.1183 107.461 51.9361C107.026 51.8728 107.067 51.3858 107.155 51.0502C107.274 50.5996 107.513 50.1835 108.082 50.2966C108.734 50.4251 109.369 50.6418 110.018 50.7741C110.739 50.9198 111.475 51.0214 112.127 50.5267C113.147 49.752 113.168 48.3809 112.158 47.5679C111.475 47.0194 110.697 46.6704 109.81 46.6455C109.296 46.6302 108.811 46.6321 108.857 45.9168C108.899 45.2687 109.259 44.8986 109.902 44.9273C111.393 44.9945 112.6 45.679 113.741 46.6244C115.742 48.2812 115.173 51.2784 113.189 52.3599C112.553 52.7051 111.874 52.799 111.167 52.7741Z" fill="#707683"/>
<path d="M109.062 94.1924C110.931 94.1905 112.094 95.2068 112.1 96.8463C112.106 98.7543 110.965 99.8819 109.144 99.9605C107.252 100.043 106.217 98.4437 106.181 97.1378C106.133 95.3851 107.362 94.1924 109.062 94.1924Z" fill="#707683"/>
<path d="M89.6982 83.444C88.8893 83.4593 87.8082 82.3069 87.768 81.3864C87.7277 80.4583 88.8337 79.4362 89.8726 79.4439C90.7908 79.4516 91.7281 80.4314 91.755 81.4094C91.778 82.3241 90.6624 83.4267 89.6982 83.444Z" fill="#707683"/>
<path d="M137.132 37.6519C137.404 37.6749 137.734 37.859 138 38.1505C138.56 38.7603 139.12 39.37 139.658 39.9971C140.026 40.4266 140.001 40.8734 139.589 41.2704C139.193 41.652 138.796 41.6079 138.42 41.2282C137.791 40.5916 137.142 39.976 136.547 39.3087C136.271 38.998 136.141 38.5896 136.377 38.1524C136.52 37.8858 136.649 37.6385 137.132 37.6519Z" fill="#707683"/>
<path d="M99.6944 26.1254C99.8861 26.1254 100.076 26.1292 100.268 26.1254C100.701 26.1158 101.05 26.2999 101.121 26.7217C101.188 27.1206 100.975 27.5137 100.588 27.6422C99.5104 27.9988 98.3948 28.2405 97.2543 28.2021C96.7828 28.1868 96.5834 27.7937 96.5815 27.3143C96.5796 26.8886 96.662 26.5837 97.1681 26.5012C98.0095 26.3651 98.8319 26.1196 99.6944 26.1254Z" fill="#707683"/>
<path d="M131.188 110.004C130.705 110.018 130.183 109.318 130.398 108.829C130.806 107.907 131.27 107.005 131.757 106.121C132.006 105.667 132.464 105.567 132.919 105.793C133.344 106.006 133.452 106.374 133.285 106.846C132.976 107.722 132.543 108.537 132.087 109.339C131.901 109.671 131.588 109.916 131.188 110.004Z" fill="#707683"/>
<path d="M48.96 28.2273C48.0821 27.8668 47.0163 27.5581 46.1154 26.9099C45.6994 26.6108 45.6669 26.1486 45.941 25.721C46.2112 25.2972 46.5908 25.3107 47.0259 25.4986C47.8367 25.8514 48.6571 26.187 49.4852 26.4957C49.9778 26.6798 50.2538 27.0461 50.1216 27.5044C50.0027 27.9205 49.6443 28.2541 48.96 28.2273Z" fill="#707683"/>
<path d="M114.826 26.3037C115.708 26.321 116.566 26.5588 117.415 26.7965C117.881 26.9269 118.37 27.2376 118.176 27.8205C117.996 28.3632 117.55 28.6758 116.906 28.5262C116.168 28.3555 115.432 28.181 114.688 28.0449C114.042 27.926 113.616 27.6038 113.649 26.9173C113.685 26.11 114.349 26.3785 114.826 26.3037Z" fill="#707683"/>
<path d="M57.4419 30.3615C56.4413 30.1563 55.4733 29.9914 54.5245 29.7536C53.984 29.6175 53.7712 29.188 53.9284 28.6453C54.0779 28.1294 54.4555 27.9703 54.973 28.0758C55.872 28.2579 56.7748 28.419 57.6719 28.6031C58.2259 28.7181 58.5038 29.0729 58.4176 29.6386C58.3313 30.2081 57.8272 30.2235 57.4419 30.3615Z" fill="#707683"/>
<path d="M125.113 31.2529C124.264 30.8406 123.158 30.6066 122.223 29.9892C121.857 29.7476 121.803 29.3928 121.981 28.9786C122.177 28.5222 122.524 28.294 122.965 28.4628C123.969 28.8482 124.962 29.2758 125.93 29.7495C126.319 29.9393 126.356 30.3382 126.174 30.7505C125.995 31.157 125.725 31.3602 125.113 31.2529Z" fill="#707683"/>
<path d="M145.485 88.1019C145.98 87.2313 146.406 86.098 147.157 85.1507C147.389 84.8592 147.841 84.9034 148.142 85.0644C148.514 85.2639 148.612 85.6992 148.485 86.075C148.152 87.076 147.59 87.9715 146.998 88.8344C146.789 89.1393 146.377 89.3157 145.97 89.1451C145.622 89.0012 145.424 88.7155 145.485 88.1019Z" fill="#707683"/>
<path d="M151.18 62.9355C151.234 63.7485 151.071 64.178 150.483 64.2567C149.871 64.3372 149.566 64.0227 149.461 63.4091C149.323 62.6056 149.083 61.8194 148.94 61.014C148.867 60.5998 148.729 60.0706 149.342 59.9076C149.982 59.7369 150.508 59.9555 150.686 60.6209C150.914 61.4704 151.058 62.3429 151.18 62.9355Z" fill="#707683"/>
<path d="M148.884 54.962C148.92 55.5584 148.719 55.8767 148.307 55.9879C147.922 56.0934 147.552 56.055 147.347 55.6005C146.944 54.6993 146.499 53.8172 146.108 52.9102C145.901 52.4327 146.093 52.0415 146.528 51.773C146.981 51.495 147.418 51.7021 147.619 52.0415C148.19 52.9984 148.587 54.0435 148.884 54.962Z" fill="#707683"/>
<path d="M142.683 44.3387C142.959 44.3118 143.203 44.3962 143.444 44.6858C144.04 45.3991 144.479 46.2045 144.937 46.9984C145.206 47.4624 145.148 47.9649 144.648 48.2429C144.174 48.5037 143.77 48.3925 143.461 47.8632C143.015 47.0981 142.449 46.4039 142.003 45.6388C141.543 44.8545 141.811 44.354 142.683 44.3387Z" fill="#707683"/>
<path d="M142.811 92.0845C143.178 92.0442 143.473 92.2111 143.641 92.5562C143.825 92.9302 143.64 93.214 143.379 93.4901C142.788 94.1114 142.129 94.6618 141.631 95.377C141.288 95.8698 140.741 95.8468 140.262 95.5707C139.727 95.262 139.934 94.8363 140.164 94.4201C140.653 93.5342 141.477 92.9589 142.152 92.2475C142.321 92.0692 142.557 92.0845 142.811 92.0845Z" fill="#707683"/>
<path d="M137.082 98.4225C137.435 98.3822 137.705 98.549 137.87 98.8443C138.033 99.1358 138.044 99.4675 137.841 99.7513C137.308 100.503 136.766 101.249 136.212 101.983C135.89 102.411 135.424 102.632 134.962 102.313C134.489 101.985 134.422 101.481 134.784 100.973C135.263 100.3 135.723 99.6133 136.218 98.9517C136.425 98.6775 136.66 98.3879 137.082 98.4225Z" fill="#707683"/>
<path d="M151.215 78.1823C151.044 78.8419 150.864 79.7451 150.567 80.6061C150.414 81.0529 150.04 81.4575 149.465 81.2907C148.942 81.1392 148.828 80.6713 148.92 80.2092C149.108 79.2523 149.323 78.2973 149.584 77.3577C149.749 76.7633 150.293 76.909 150.711 76.9627C151.295 77.0394 151.18 77.5399 151.215 78.1823Z" fill="#707683"/>
<path d="M80.8885 30.7202C79.7116 30.7222 79.2688 30.2715 79.6656 29.4834C79.8055 29.2073 79.978 29.0212 80.3096 29.0059C81.2239 28.9656 82.121 28.7413 83.0468 28.7969C83.574 28.8276 84.0532 28.9215 84.0838 29.5179C84.1145 30.1028 83.6966 30.5189 83.1465 30.5035C82.3779 30.4844 81.6514 30.772 80.8885 30.7202Z" fill="#707683"/>
<path d="M65.7781 31.2837C65.0153 30.9731 64.2102 31.1706 63.4281 31.0939C62.832 31.0364 62.4237 30.7775 62.4582 30.0642C62.4908 29.347 62.9681 29.3796 63.4607 29.3834C64.2849 29.3892 65.1149 29.3412 65.9334 29.416C66.4165 29.4601 66.9877 29.6174 66.9627 30.2885C66.9359 31.0134 66.3609 31.1687 65.7781 31.2837Z" fill="#707683"/>
<path d="M88.1475 28.7411C88.1379 28.4458 88.2031 28.1293 88.6593 28.0488C89.6484 27.8724 90.6317 27.6442 91.6285 27.5176C92.0885 27.4601 92.5083 27.7439 92.6808 28.1888C92.838 28.5953 92.4489 28.8005 92.2054 29.0364C91.6438 29.581 90.8656 29.278 90.2177 29.5292C89.8822 29.6596 89.474 29.6711 89.1098 29.7056C88.5577 29.7574 88.1284 29.487 88.1475 28.7411Z" fill="#707683"/>
<path d="M130.517 32.4019C131.636 32.8985 132.658 33.5677 133.482 34.4844C133.705 34.7317 133.616 35.1517 133.339 35.4451C133.061 35.7404 132.664 35.8324 132.382 35.6445C131.491 35.052 130.643 34.3904 129.794 33.7384C129.507 33.5179 129.493 33.2053 129.624 32.8736C129.783 32.4671 130.111 32.421 130.517 32.4019Z" fill="#707683"/>
<path d="M150.237 70.5251C150.235 70.0783 150.235 69.6296 150.235 69.1828C150.235 68.7859 150.237 68.387 150.766 68.3199C151.246 68.2586 151.721 68.3103 151.834 68.8664C152.058 69.9652 152.074 71.0812 151.823 72.1762C151.713 72.6537 151.288 72.9432 150.803 72.8473C150.329 72.7553 150.22 72.3219 150.235 71.8655C150.251 71.4207 150.239 70.9719 150.237 70.5251Z" fill="#707683"/>
<path d="M107.304 27.2722C106.86 27.2722 106.413 27.2531 105.97 27.278C105.408 27.3087 105.096 26.9942 105.086 26.5071C105.077 26.0565 105.305 25.5982 105.847 25.5771C106.831 25.5407 107.818 25.5272 108.799 25.5943C109.242 25.625 109.66 25.8762 109.604 26.4669C109.549 27.0575 109.192 27.2818 108.638 27.278C108.194 27.2742 107.749 27.278 107.304 27.278C107.304 27.2761 107.304 27.2742 107.304 27.2722Z" fill="#707683"/>
<path d="M73.1963 31.113C72.6883 31.113 72.1804 31.136 71.6763 31.1053C71.2546 31.0804 70.9153 30.8407 70.9364 30.4016C70.9555 30.0276 71.1357 29.6326 71.6015 29.5962C72.5752 29.5214 73.5375 29.3143 74.5247 29.3776C75.0786 29.4121 75.4543 29.6134 75.4811 30.1983C75.5099 30.8369 75.1304 31.1053 74.5266 31.1072C74.0819 31.1092 73.6391 31.1072 73.1944 31.1072C73.1963 31.1111 73.1963 31.1111 73.1963 31.113Z" fill="#707683"/>
<path d="M129.352 117.56C128.778 117.562 128.203 117.562 127.63 117.564C127.611 116.367 128.138 115.293 128.42 114.168C128.543 113.675 128.93 113.458 129.455 113.627C129.998 113.801 130.243 114.173 130.072 114.722C129.781 115.658 129.497 116.59 129.352 117.56Z" fill="#707683"/>
<path d="M106.214 53.5123C107.235 53.5718 107.9 53.6274 107.893 54.5881C107.887 55.3647 107.339 56.0378 106.687 56.0263C105.905 56.0128 105.391 55.4913 105.401 54.6897C105.412 53.9553 105.685 53.4548 106.214 53.5123Z" fill="#707683"/>
<path d="M41.6396 24.1525C41.1489 24.141 39.7937 22.5091 39.8569 22.0566C39.9451 21.4333 40.6313 21.0843 41.1546 21.4659C41.6128 21.7996 41.998 22.2406 42.3795 22.6683C42.6114 22.9291 42.5827 23.2742 42.4312 23.5695C42.2645 23.9013 41.929 24.0374 41.6396 24.1525Z" fill="#707683"/>
<path d="M25.7031 16.2979C25.9274 16.3822 26.1919 16.4302 26.1785 16.7562C26.1766 16.7964 26.1038 16.8655 26.0635 16.8674C25.7491 16.8789 25.6744 16.6334 25.5881 16.4033C25.6284 16.3707 25.6667 16.3362 25.7031 16.2979Z" fill="#707683"/>
<path d="M142.361 117C142.311 117.198 142.261 117.393 142.21 117.591C142.089 117.6 141.966 117.61 141.845 117.619C141.891 117.307 142.116 117.146 142.361 117Z" fill="#6DB4C4"/>
<path d="M29.4908 16.739C29.2876 16.8099 29.2109 16.8502 29.1304 16.8578C29.0825 16.8617 28.9886 16.8118 28.9886 16.7888C28.9905 16.714 29.0269 16.6392 29.0518 16.5645C29.1247 16.5951 29.1994 16.6239 29.4908 16.739Z" fill="#707683"/>
<path d="M20.6887 141.591C20.8382 141.558 20.9628 141.576 21.0088 141.75C20.9015 141.697 20.7961 141.643 20.6887 141.591Z" fill="#707683"/>
<path d="M31.2619 16.4971C31.3137 16.5565 31.4114 16.614 31.2868 16.685C31.2696 16.6946 31.2044 16.6255 31.1622 16.5929C31.1948 16.5604 31.2293 16.5278 31.2619 16.4971Z" fill="#707683"/>
<path d="M21.0913 209.474C21.0913 209.474 21.0951 209.525 21.097 209.525C21.0529 209.525 21.0069 209.523 20.9628 209.523C21.005 209.506 21.0472 209.489 21.0913 209.474Z" fill="#6DB4C4"/>
<path d="M142.39 117.595C160.849 117.593 179.306 117.591 197.765 117.589C197.412 117.928 196.973 117.763 196.578 117.763C179.02 117.773 161.464 117.777 143.906 117.738C143.423 117.738 142.827 118.245 142.39 117.595Z" fill="#6DB4C4"/>
</g>
<path d="M5.0293 291.929L1.73438 301H0.387695L4.18164 291.047H5.0498L5.0293 291.929ZM7.79102 301L4.48926 291.929L4.46875 291.047H5.33691L9.14453 301H7.79102ZM7.62012 297.315V298.396H2.02832V297.315H7.62012ZM15.1982 299.564V290.5H16.4697V301H15.3076L15.1982 299.564ZM10.2217 297.384V297.24C10.2217 296.675 10.29 296.162 10.4268 295.702C10.568 295.237 10.7663 294.839 11.0215 294.506C11.2812 294.173 11.5889 293.918 11.9443 293.74C12.3044 293.558 12.7054 293.467 13.1475 293.467C13.6123 293.467 14.0179 293.549 14.3643 293.713C14.7152 293.872 15.0114 294.107 15.2529 294.417C15.499 294.722 15.6927 295.091 15.834 295.524C15.9753 295.957 16.0732 296.447 16.1279 296.994V297.623C16.0778 298.165 15.9798 298.653 15.834 299.086C15.6927 299.519 15.499 299.888 15.2529 300.193C15.0114 300.499 14.7152 300.733 14.3643 300.897C14.0133 301.057 13.6032 301.137 13.1338 301.137C12.7008 301.137 12.3044 301.043 11.9443 300.856C11.5889 300.67 11.2812 300.408 11.0215 300.07C10.7663 299.733 10.568 299.337 10.4268 298.881C10.29 298.421 10.2217 297.922 10.2217 297.384ZM11.4932 297.24V297.384C11.4932 297.753 11.5296 298.099 11.6025 298.423C11.68 298.746 11.7985 299.031 11.958 299.277C12.1175 299.523 12.3203 299.717 12.5664 299.858C12.8125 299.995 13.1064 300.063 13.4482 300.063C13.8675 300.063 14.2116 299.975 14.4805 299.797C14.7539 299.619 14.9727 299.384 15.1367 299.093C15.3008 298.801 15.4284 298.484 15.5195 298.143V296.495C15.4648 296.244 15.3851 296.003 15.2803 295.771C15.18 295.534 15.0479 295.324 14.8838 295.142C14.7243 294.955 14.526 294.807 14.2891 294.697C14.0566 294.588 13.7809 294.533 13.4619 294.533C13.1156 294.533 12.8171 294.606 12.5664 294.752C12.3203 294.893 12.1175 295.089 11.958 295.34C11.7985 295.586 11.68 295.873 11.6025 296.201C11.5296 296.525 11.4932 296.871 11.4932 297.24ZM23.3506 299.564V290.5H24.6221V301H23.46L23.3506 299.564ZM18.374 297.384V297.24C18.374 296.675 18.4424 296.162 18.5791 295.702C18.7204 295.237 18.9186 294.839 19.1738 294.506C19.4336 294.173 19.7412 293.918 20.0967 293.74C20.4567 293.558 20.8577 293.467 21.2998 293.467C21.7646 293.467 22.1702 293.549 22.5166 293.713C22.8675 293.872 23.1637 294.107 23.4053 294.417C23.6514 294.722 23.8451 295.091 23.9863 295.524C24.1276 295.957 24.2256 296.447 24.2803 296.994V297.623C24.2301 298.165 24.1322 298.653 23.9863 299.086C23.8451 299.519 23.6514 299.888 23.4053 300.193C23.1637 300.499 22.8675 300.733 22.5166 300.897C22.1657 301.057 21.7555 301.137 21.2861 301.137C20.8532 301.137 20.4567 301.043 20.0967 300.856C19.7412 300.67 19.4336 300.408 19.1738 300.07C18.9186 299.733 18.7204 299.337 18.5791 298.881C18.4424 298.421 18.374 297.922 18.374 297.384ZM19.6455 297.24V297.384C19.6455 297.753 19.682 298.099 19.7549 298.423C19.8324 298.746 19.9508 299.031 20.1104 299.277C20.2699 299.523 20.4727 299.717 20.7188 299.858C20.9648 299.995 21.2588 300.063 21.6006 300.063C22.0199 300.063 22.3639 299.975 22.6328 299.797C22.9062 299.619 23.125 299.384 23.2891 299.093C23.4531 298.801 23.5807 298.484 23.6719 298.143V296.495C23.6172 296.244 23.5374 296.003 23.4326 295.771C23.3324 295.534 23.2002 295.324 23.0361 295.142C22.8766 294.955 22.6784 294.807 22.4414 294.697C22.209 294.588 21.9333 294.533 21.6143 294.533C21.2679 294.533 20.9694 294.606 20.7188 294.752C20.4727 294.893 20.2699 295.089 20.1104 295.34C19.9508 295.586 19.8324 295.873 19.7549 296.201C19.682 296.525 19.6455 296.871 19.6455 297.24ZM32.1699 291.047V301H30.8506V291.047H32.1699ZM35.8857 295.073V301H34.6143V293.604H35.8174L35.8857 295.073ZM35.626 297.021L35.0381 297.001C35.0426 296.495 35.1087 296.028 35.2363 295.6C35.3639 295.167 35.5531 294.791 35.8037 294.472C36.0544 294.153 36.3665 293.907 36.7402 293.733C37.1139 293.556 37.5469 293.467 38.0391 293.467C38.3854 293.467 38.7044 293.517 38.9961 293.617C39.2878 293.713 39.5407 293.866 39.7549 294.075C39.9691 294.285 40.1354 294.554 40.2539 294.882C40.3724 295.21 40.4316 295.606 40.4316 296.071V301H39.167V296.133C39.167 295.745 39.1009 295.436 38.9688 295.203C38.8411 294.971 38.6589 294.802 38.4219 294.697C38.1849 294.588 37.9069 294.533 37.5879 294.533C37.2142 294.533 36.902 294.599 36.6514 294.731C36.4007 294.864 36.2002 295.046 36.0498 295.278C35.8994 295.511 35.79 295.777 35.7217 296.078C35.6579 296.374 35.626 296.689 35.626 297.021ZM40.418 296.324L39.5703 296.584C39.5749 296.178 39.641 295.789 39.7686 295.415C39.9007 295.041 40.0898 294.709 40.3359 294.417C40.5866 294.125 40.8942 293.895 41.2588 293.727C41.6234 293.553 42.0404 293.467 42.5098 293.467C42.9062 293.467 43.2572 293.519 43.5625 293.624C43.8724 293.729 44.1322 293.891 44.3418 294.109C44.556 294.324 44.7178 294.599 44.8271 294.937C44.9365 295.274 44.9912 295.675 44.9912 296.14V301H43.7197V296.126C43.7197 295.711 43.6536 295.39 43.5215 295.162C43.3939 294.93 43.2116 294.768 42.9746 294.677C42.7422 294.581 42.4642 294.533 42.1406 294.533C41.8626 294.533 41.6165 294.581 41.4023 294.677C41.1882 294.772 41.0081 294.905 40.8623 295.073C40.7165 295.237 40.6048 295.426 40.5273 295.641C40.4544 295.855 40.418 296.083 40.418 296.324ZM51.5166 299.735V295.928C51.5166 295.636 51.4574 295.383 51.3389 295.169C51.2249 294.95 51.0518 294.782 50.8193 294.663C50.5869 294.545 50.2998 294.485 49.958 294.485C49.639 294.485 49.3587 294.54 49.1172 294.649C48.8802 294.759 48.6934 294.902 48.5566 295.08C48.4245 295.258 48.3584 295.449 48.3584 295.654H47.0938C47.0938 295.39 47.1621 295.128 47.2988 294.868C47.4355 294.608 47.6315 294.374 47.8867 294.164C48.1465 293.95 48.4564 293.781 48.8164 293.658C49.181 293.531 49.5866 293.467 50.0332 293.467C50.571 293.467 51.0449 293.558 51.4551 293.74C51.8698 293.923 52.1934 294.198 52.4258 294.567C52.6628 294.932 52.7812 295.39 52.7812 295.941V299.387C52.7812 299.633 52.8018 299.895 52.8428 300.173C52.8883 300.451 52.9544 300.69 53.041 300.891V301H51.7217C51.6579 300.854 51.6077 300.66 51.5713 300.419C51.5348 300.173 51.5166 299.945 51.5166 299.735ZM51.7354 296.516L51.749 297.404H50.4707C50.1107 297.404 49.7894 297.434 49.5068 297.493C49.2243 297.548 48.9873 297.632 48.7959 297.746C48.6045 297.86 48.4587 298.004 48.3584 298.177C48.2581 298.345 48.208 298.544 48.208 298.771C48.208 299.004 48.2604 299.216 48.3652 299.407C48.4701 299.599 48.6273 299.751 48.8369 299.865C49.0511 299.975 49.3132 300.029 49.623 300.029C50.0104 300.029 50.3522 299.947 50.6484 299.783C50.9447 299.619 51.1794 299.419 51.3525 299.182C51.5303 298.945 51.626 298.715 51.6396 298.491L52.1797 299.1C52.1478 299.291 52.0612 299.503 51.9199 299.735C51.7786 299.968 51.5895 300.191 51.3525 300.405C51.1201 300.615 50.8421 300.79 50.5186 300.932C50.1995 301.068 49.8395 301.137 49.4385 301.137C48.9372 301.137 48.4974 301.039 48.1191 300.843C47.7454 300.647 47.4538 300.385 47.2441 300.057C47.0391 299.724 46.9365 299.353 46.9365 298.942C46.9365 298.546 47.014 298.197 47.1689 297.896C47.3239 297.591 47.5472 297.338 47.8389 297.138C48.1305 296.933 48.4814 296.778 48.8916 296.673C49.3018 296.568 49.7598 296.516 50.2656 296.516H51.7354ZM59.8125 293.604H60.9609V300.843C60.9609 301.494 60.8288 302.05 60.5645 302.511C60.3001 302.971 59.931 303.32 59.457 303.557C58.9876 303.798 58.4453 303.919 57.8301 303.919C57.5749 303.919 57.2741 303.878 56.9277 303.796C56.5859 303.718 56.2487 303.584 55.916 303.393C55.5879 303.206 55.3122 302.953 55.0889 302.634L55.752 301.882C56.0618 302.256 56.3854 302.515 56.7227 302.661C57.0645 302.807 57.4017 302.88 57.7344 302.88C58.1354 302.88 58.4818 302.805 58.7734 302.654C59.0651 302.504 59.2907 302.281 59.4502 301.984C59.6143 301.693 59.6963 301.333 59.6963 300.904V295.23L59.8125 293.604ZM54.7197 297.384V297.24C54.7197 296.675 54.7858 296.162 54.918 295.702C55.0547 295.237 55.2484 294.839 55.499 294.506C55.7542 294.173 56.0618 293.918 56.4219 293.74C56.7819 293.558 57.1875 293.467 57.6387 293.467C58.1035 293.467 58.5091 293.549 58.8555 293.713C59.2064 293.872 59.5026 294.107 59.7441 294.417C59.9902 294.722 60.1839 295.091 60.3252 295.524C60.4665 295.957 60.5645 296.447 60.6191 296.994V297.623C60.569 298.165 60.471 298.653 60.3252 299.086C60.1839 299.519 59.9902 299.888 59.7441 300.193C59.5026 300.499 59.2064 300.733 58.8555 300.897C58.5046 301.057 58.0944 301.137 57.625 301.137C57.1829 301.137 56.7819 301.043 56.4219 300.856C56.0664 300.67 55.7611 300.408 55.5059 300.07C55.2507 299.733 55.0547 299.337 54.918 298.881C54.7858 298.421 54.7197 297.922 54.7197 297.384ZM55.9844 297.24V297.384C55.9844 297.753 56.0208 298.099 56.0938 298.423C56.1712 298.746 56.2874 299.031 56.4424 299.277C56.6019 299.523 56.8047 299.717 57.0508 299.858C57.2969 299.995 57.5908 300.063 57.9326 300.063C58.3519 300.063 58.6982 299.975 58.9717 299.797C59.2451 299.619 59.4616 299.384 59.6211 299.093C59.7852 298.801 59.9128 298.484 60.0039 298.143V296.495C59.9538 296.244 59.8763 296.003 59.7715 295.771C59.6712 295.534 59.5391 295.324 59.375 295.142C59.2155 294.955 59.0173 294.807 58.7803 294.697C58.5433 294.588 58.2653 294.533 57.9463 294.533C57.5999 294.533 57.3014 294.606 57.0508 294.752C56.8047 294.893 56.6019 295.089 56.4424 295.34C56.2874 295.586 56.1712 295.873 56.0938 296.201C56.0208 296.525 55.9844 296.871 55.9844 297.24ZM66.2012 301.137C65.6862 301.137 65.2191 301.05 64.7998 300.877C64.3851 300.699 64.0273 300.451 63.7266 300.132C63.4303 299.813 63.2025 299.435 63.043 298.997C62.8835 298.56 62.8037 298.081 62.8037 297.562V297.274C62.8037 296.673 62.8926 296.137 63.0703 295.668C63.248 295.194 63.4896 294.793 63.7949 294.465C64.1003 294.137 64.4466 293.888 64.834 293.72C65.2214 293.551 65.6224 293.467 66.0371 293.467C66.5658 293.467 67.0215 293.558 67.4043 293.74C67.7917 293.923 68.1084 294.178 68.3545 294.506C68.6006 294.829 68.7829 295.212 68.9014 295.654C69.0199 296.092 69.0791 296.57 69.0791 297.09V297.657H63.5557V296.625H67.8145V296.529C67.7962 296.201 67.7279 295.882 67.6094 295.572C67.4954 295.262 67.3132 295.007 67.0625 294.807C66.8118 294.606 66.4701 294.506 66.0371 294.506C65.75 294.506 65.4857 294.567 65.2441 294.69C65.0026 294.809 64.7952 294.987 64.6221 295.224C64.4489 295.461 64.3145 295.75 64.2188 296.092C64.123 296.434 64.0752 296.828 64.0752 297.274V297.562C64.0752 297.912 64.123 298.243 64.2188 298.553C64.319 298.858 64.4626 299.127 64.6494 299.359C64.8408 299.592 65.071 299.774 65.3398 299.906C65.6133 300.038 65.9232 300.104 66.2695 300.104C66.7161 300.104 67.0944 300.013 67.4043 299.831C67.7142 299.649 67.9854 299.405 68.2178 299.1L68.9834 299.708C68.8239 299.95 68.6211 300.18 68.375 300.398C68.1289 300.617 67.8258 300.795 67.4658 300.932C67.1104 301.068 66.6888 301.137 66.2012 301.137ZM70.7578 297.021V296.953C70.7578 295.96 70.8695 295.062 71.0928 294.26C71.3161 293.453 71.6009 292.747 71.9473 292.141C72.2936 291.535 72.6582 291.033 73.041 290.637C73.4238 290.236 73.777 289.946 74.1006 289.769L74.3672 290.603C74.0983 290.808 73.8249 291.09 73.5469 291.45C73.2734 291.81 73.0205 292.252 72.7881 292.776C72.5602 293.3 72.3757 293.909 72.2344 294.602C72.0931 295.294 72.0225 296.074 72.0225 296.939V297.035C72.0225 297.901 72.0931 298.683 72.2344 299.38C72.3757 300.073 72.5602 300.683 72.7881 301.212C73.0205 301.741 73.2734 302.189 73.5469 302.559C73.8249 302.932 74.0983 303.229 74.3672 303.447L74.1006 304.213C73.777 304.035 73.4238 303.746 73.041 303.345C72.6582 302.948 72.2936 302.447 71.9473 301.841C71.6009 301.239 71.3161 300.535 71.0928 299.729C70.8695 298.922 70.7578 298.02 70.7578 297.021ZM80.1611 299.038C80.1611 298.856 80.1201 298.687 80.0381 298.532C79.9606 298.373 79.7988 298.229 79.5527 298.102C79.3112 297.969 78.9466 297.855 78.459 297.76C78.0488 297.673 77.6774 297.571 77.3447 297.452C77.0166 297.334 76.7363 297.19 76.5039 297.021C76.276 296.853 76.1006 296.655 75.9775 296.427C75.8545 296.199 75.793 295.932 75.793 295.627C75.793 295.335 75.8568 295.06 75.9844 294.8C76.1165 294.54 76.3011 294.31 76.5381 294.109C76.7796 293.909 77.069 293.752 77.4062 293.638C77.7435 293.524 78.1195 293.467 78.5342 293.467C79.1266 293.467 79.6325 293.572 80.0518 293.781C80.471 293.991 80.7923 294.271 81.0156 294.622C81.2389 294.968 81.3506 295.354 81.3506 295.777H80.0859C80.0859 295.572 80.0244 295.374 79.9014 295.183C79.7829 294.987 79.6074 294.825 79.375 294.697C79.1471 294.57 78.8669 294.506 78.5342 294.506C78.1833 294.506 77.8984 294.561 77.6797 294.67C77.4655 294.775 77.3083 294.909 77.208 295.073C77.1123 295.237 77.0645 295.41 77.0645 295.593C77.0645 295.729 77.0872 295.853 77.1328 295.962C77.1829 296.067 77.2695 296.165 77.3926 296.256C77.5156 296.342 77.6888 296.424 77.9121 296.502C78.1354 296.579 78.4202 296.657 78.7666 296.734C79.3727 296.871 79.8717 297.035 80.2637 297.227C80.6556 297.418 80.9473 297.653 81.1387 297.931C81.3301 298.209 81.4258 298.546 81.4258 298.942C81.4258 299.266 81.3574 299.562 81.2207 299.831C81.0885 300.1 80.8949 300.332 80.6396 300.528C80.389 300.72 80.0882 300.87 79.7373 300.979C79.391 301.084 79.0013 301.137 78.5684 301.137C77.9167 301.137 77.3652 301.021 76.9141 300.788C76.4629 300.556 76.1211 300.255 75.8887 299.886C75.6562 299.517 75.54 299.127 75.54 298.717H76.8115C76.8298 299.063 76.93 299.339 77.1123 299.544C77.2946 299.744 77.5179 299.888 77.7822 299.975C78.0465 300.057 78.3086 300.098 78.5684 300.098C78.9147 300.098 79.2041 300.052 79.4365 299.961C79.6735 299.87 79.8535 299.744 79.9766 299.585C80.0996 299.425 80.1611 299.243 80.1611 299.038ZM86.249 296.953V297.021C86.249 298.02 86.1374 298.922 85.9141 299.729C85.6908 300.535 85.4059 301.239 85.0596 301.841C84.7132 302.447 84.3486 302.948 83.9658 303.345C83.583 303.746 83.2298 304.035 82.9062 304.213L82.6396 303.447C82.9085 303.242 83.1797 302.955 83.4531 302.586C83.7266 302.221 83.9795 301.77 84.2119 301.232C84.4443 300.699 84.6312 300.084 84.7725 299.387C84.9137 298.685 84.9844 297.901 84.9844 297.035V296.939C84.9844 296.074 84.9092 295.292 84.7588 294.595C84.6084 293.893 84.4124 293.275 84.1709 292.742C83.9339 292.209 83.6787 291.76 83.4053 291.396C83.1364 291.026 82.8812 290.742 82.6396 290.541L82.9062 289.769C83.2298 289.946 83.583 290.236 83.9658 290.637C84.3486 291.033 84.7132 291.535 85.0596 292.141C85.4059 292.747 85.6908 293.453 85.9141 294.26C86.1374 295.062 86.249 295.96 86.249 296.953ZM93.4551 290.5V301H92.1904V290.5H93.4551ZM93.1543 297.021L92.6279 297.001C92.6325 296.495 92.7077 296.028 92.8535 295.6C92.9993 295.167 93.2044 294.791 93.4688 294.472C93.7331 294.153 94.0475 293.907 94.4121 293.733C94.7812 293.556 95.1891 293.467 95.6357 293.467C96.0003 293.467 96.3285 293.517 96.6201 293.617C96.9118 293.713 97.1602 293.868 97.3652 294.082C97.5749 294.296 97.7344 294.574 97.8438 294.916C97.9531 295.253 98.0078 295.666 98.0078 296.153V301H96.7363V296.14C96.7363 295.752 96.6794 295.442 96.5654 295.21C96.4515 294.973 96.2852 294.802 96.0664 294.697C95.8477 294.588 95.5788 294.533 95.2598 294.533C94.9453 294.533 94.6582 294.599 94.3984 294.731C94.1432 294.864 93.9222 295.046 93.7354 295.278C93.5531 295.511 93.4095 295.777 93.3047 296.078C93.2044 296.374 93.1543 296.689 93.1543 297.021ZM103.221 301.137C102.706 301.137 102.239 301.05 101.819 300.877C101.405 300.699 101.047 300.451 100.746 300.132C100.45 299.813 100.222 299.435 100.062 298.997C99.903 298.56 99.8232 298.081 99.8232 297.562V297.274C99.8232 296.673 99.9121 296.137 100.09 295.668C100.268 295.194 100.509 294.793 100.814 294.465C101.12 294.137 101.466 293.888 101.854 293.72C102.241 293.551 102.642 293.467 103.057 293.467C103.585 293.467 104.041 293.558 104.424 293.74C104.811 293.923 105.128 294.178 105.374 294.506C105.62 294.829 105.802 295.212 105.921 295.654C106.039 296.092 106.099 296.57 106.099 297.09V297.657H100.575V296.625H104.834V296.529C104.816 296.201 104.747 295.882 104.629 295.572C104.515 295.262 104.333 295.007 104.082 294.807C103.831 294.606 103.49 294.506 103.057 294.506C102.77 294.506 102.505 294.567 102.264 294.69C102.022 294.809 101.815 294.987 101.642 295.224C101.468 295.461 101.334 295.75 101.238 296.092C101.143 296.434 101.095 296.828 101.095 297.274V297.562C101.095 297.912 101.143 298.243 101.238 298.553C101.339 298.858 101.482 299.127 101.669 299.359C101.86 299.592 102.09 299.774 102.359 299.906C102.633 300.038 102.943 300.104 103.289 300.104C103.736 300.104 104.114 300.013 104.424 299.831C104.734 299.649 105.005 299.405 105.237 299.1L106.003 299.708C105.843 299.95 105.641 300.18 105.395 300.398C105.148 300.617 104.845 300.795 104.485 300.932C104.13 301.068 103.708 301.137 103.221 301.137ZM109.09 294.766V301H107.825V293.604H109.056L109.09 294.766ZM111.4 293.562L111.394 294.738C111.289 294.715 111.188 294.702 111.093 294.697C111.002 294.688 110.897 294.684 110.778 294.684C110.487 294.684 110.229 294.729 110.006 294.82C109.783 294.911 109.593 295.039 109.438 295.203C109.284 295.367 109.16 295.563 109.069 295.791C108.983 296.014 108.926 296.26 108.898 296.529L108.543 296.734C108.543 296.288 108.586 295.868 108.673 295.477C108.764 295.085 108.903 294.738 109.09 294.438C109.277 294.132 109.514 293.895 109.801 293.727C110.092 293.553 110.439 293.467 110.84 293.467C110.931 293.467 111.036 293.478 111.154 293.501C111.273 293.519 111.355 293.54 111.4 293.562ZM115.752 301.137C115.237 301.137 114.77 301.05 114.351 300.877C113.936 300.699 113.578 300.451 113.277 300.132C112.981 299.813 112.753 299.435 112.594 298.997C112.434 298.56 112.354 298.081 112.354 297.562V297.274C112.354 296.673 112.443 296.137 112.621 295.668C112.799 295.194 113.04 294.793 113.346 294.465C113.651 294.137 113.997 293.888 114.385 293.72C114.772 293.551 115.173 293.467 115.588 293.467C116.117 293.467 116.572 293.558 116.955 293.74C117.342 293.923 117.659 294.178 117.905 294.506C118.151 294.829 118.334 295.212 118.452 295.654C118.571 296.092 118.63 296.57 118.63 297.09V297.657H113.106V296.625H117.365V296.529C117.347 296.201 117.279 295.882 117.16 295.572C117.046 295.262 116.864 295.007 116.613 294.807C116.363 294.606 116.021 294.506 115.588 294.506C115.301 294.506 115.036 294.567 114.795 294.69C114.553 294.809 114.346 294.987 114.173 295.224C114 295.461 113.865 295.75 113.77 296.092C113.674 296.434 113.626 296.828 113.626 297.274V297.562C113.626 297.912 113.674 298.243 113.77 298.553C113.87 298.858 114.013 299.127 114.2 299.359C114.392 299.592 114.622 299.774 114.891 299.906C115.164 300.038 115.474 300.104 115.82 300.104C116.267 300.104 116.645 300.013 116.955 299.831C117.265 299.649 117.536 299.405 117.769 299.1L118.534 299.708C118.375 299.95 118.172 300.18 117.926 300.398C117.68 300.617 117.377 300.795 117.017 300.932C116.661 301.068 116.24 301.137 115.752 301.137ZM125.453 293.604V301H124.182V293.604H125.453ZM124.086 291.642C124.086 291.437 124.147 291.263 124.271 291.122C124.398 290.981 124.585 290.91 124.831 290.91C125.073 290.91 125.257 290.981 125.385 291.122C125.517 291.263 125.583 291.437 125.583 291.642C125.583 291.838 125.517 292.006 125.385 292.147C125.257 292.284 125.073 292.353 124.831 292.353C124.585 292.353 124.398 292.284 124.271 292.147C124.147 292.006 124.086 291.838 124.086 291.642ZM128.998 295.183V301H127.733V293.604H128.93L128.998 295.183ZM128.697 297.021L128.171 297.001C128.175 296.495 128.251 296.028 128.396 295.6C128.542 295.167 128.747 294.791 129.012 294.472C129.276 294.153 129.59 293.907 129.955 293.733C130.324 293.556 130.732 293.467 131.179 293.467C131.543 293.467 131.871 293.517 132.163 293.617C132.455 293.713 132.703 293.868 132.908 294.082C133.118 294.296 133.277 294.574 133.387 294.916C133.496 295.253 133.551 295.666 133.551 296.153V301H132.279V296.14C132.279 295.752 132.222 295.442 132.108 295.21C131.994 294.973 131.828 294.802 131.609 294.697C131.391 294.588 131.122 294.533 130.803 294.533C130.488 294.533 130.201 294.599 129.941 294.731C129.686 294.864 129.465 295.046 129.278 295.278C129.096 295.511 128.952 295.777 128.848 296.078C128.747 296.374 128.697 296.689 128.697 297.021ZM143.812 298.095V291.047H145.125V298.095C145.125 298.751 144.991 299.305 144.722 299.756C144.453 300.207 144.081 300.551 143.607 300.788C143.138 301.021 142.598 301.137 141.987 301.137C141.377 301.137 140.834 301.032 140.36 300.822C139.886 300.613 139.515 300.294 139.246 299.865C138.977 299.437 138.843 298.897 138.843 298.245H140.162C140.162 298.664 140.24 299.008 140.395 299.277C140.549 299.546 140.764 299.744 141.037 299.872C141.315 300 141.632 300.063 141.987 300.063C142.334 300.063 142.644 299.991 142.917 299.845C143.195 299.694 143.414 299.473 143.573 299.182C143.733 298.885 143.812 298.523 143.812 298.095ZM151.281 297.097H148.622V296.023H151.281C151.796 296.023 152.213 295.941 152.532 295.777C152.851 295.613 153.084 295.385 153.229 295.094C153.38 294.802 153.455 294.469 153.455 294.096C153.455 293.754 153.38 293.433 153.229 293.132C153.084 292.831 152.851 292.59 152.532 292.407C152.213 292.22 151.796 292.127 151.281 292.127H148.93V301H147.61V291.047H151.281C152.033 291.047 152.669 291.177 153.188 291.437C153.708 291.696 154.102 292.056 154.371 292.517C154.64 292.972 154.774 293.494 154.774 294.082C154.774 294.72 154.64 295.265 154.371 295.716C154.102 296.167 153.708 296.511 153.188 296.748C152.669 296.98 152.033 297.097 151.281 297.097ZM163.016 299.927V301H157.745V299.927H163.016ZM158.012 291.047V301H156.692V291.047H158.012ZM162.318 295.326V296.399H157.745V295.326H162.318ZM162.947 291.047V292.127H157.745V291.047H162.947ZM172.255 296.044V299.688C172.132 299.87 171.936 300.075 171.667 300.303C171.398 300.526 171.027 300.722 170.553 300.891C170.083 301.055 169.477 301.137 168.734 301.137C168.128 301.137 167.57 301.032 167.06 300.822C166.554 300.608 166.114 300.298 165.74 299.893C165.371 299.482 165.084 298.986 164.879 298.402C164.678 297.814 164.578 297.149 164.578 296.406V295.634C164.578 294.891 164.665 294.228 164.838 293.645C165.016 293.061 165.275 292.567 165.617 292.161C165.959 291.751 166.378 291.441 166.875 291.231C167.372 291.017 167.941 290.91 168.584 290.91C169.345 290.91 169.981 291.042 170.491 291.307C171.006 291.566 171.407 291.926 171.694 292.387C171.986 292.847 172.173 293.371 172.255 293.959H170.936C170.876 293.599 170.758 293.271 170.58 292.975C170.407 292.678 170.159 292.441 169.835 292.264C169.511 292.081 169.094 291.99 168.584 291.99C168.124 291.99 167.725 292.075 167.388 292.243C167.05 292.412 166.772 292.653 166.554 292.968C166.335 293.282 166.171 293.663 166.062 294.109C165.957 294.556 165.904 295.06 165.904 295.62V296.406C165.904 296.98 165.97 297.493 166.103 297.944C166.239 298.396 166.433 298.781 166.684 299.1C166.934 299.414 167.233 299.653 167.579 299.817C167.93 299.981 168.317 300.063 168.741 300.063C169.211 300.063 169.591 300.025 169.883 299.947C170.174 299.865 170.402 299.77 170.566 299.66C170.73 299.546 170.856 299.439 170.942 299.339V297.11H168.639V296.044H172.255ZM180.062 295.477L181.553 294.417C181.84 294.221 182.061 294.025 182.216 293.829C182.375 293.629 182.455 293.355 182.455 293.009C182.455 292.74 182.35 292.496 182.141 292.277C181.931 292.054 181.635 291.942 181.252 291.942C180.988 291.942 180.764 292.004 180.582 292.127C180.4 292.25 180.263 292.414 180.172 292.619C180.081 292.82 180.035 293.041 180.035 293.282C180.035 293.487 180.085 293.699 180.186 293.918C180.286 294.137 180.425 294.365 180.603 294.602C180.78 294.839 180.983 295.089 181.211 295.354L185.921 301H184.403L180.541 296.379C180.199 295.978 179.894 295.611 179.625 295.278C179.356 294.941 179.144 294.615 178.989 294.301C178.839 293.986 178.764 293.66 178.764 293.323C178.764 292.804 178.866 292.366 179.071 292.011C179.281 291.651 179.573 291.377 179.946 291.19C180.32 291.004 180.757 290.91 181.259 290.91C181.746 290.91 182.166 291.008 182.517 291.204C182.872 291.396 183.146 291.651 183.337 291.97C183.528 292.284 183.624 292.631 183.624 293.009C183.624 293.328 183.567 293.615 183.453 293.87C183.339 294.121 183.18 294.351 182.975 294.561C182.774 294.77 182.539 294.975 182.271 295.176L180.295 296.646C179.967 296.887 179.728 297.117 179.577 297.336C179.427 297.555 179.329 297.748 179.283 297.917C179.242 298.086 179.222 298.22 179.222 298.32C179.222 298.644 179.292 298.94 179.434 299.209C179.575 299.478 179.789 299.694 180.076 299.858C180.368 300.018 180.732 300.098 181.17 300.098C181.553 300.098 181.924 300.011 182.284 299.838C182.649 299.66 182.975 299.41 183.262 299.086C183.549 298.758 183.777 298.368 183.945 297.917C184.118 297.461 184.205 296.958 184.205 296.406H185.34C185.34 296.857 185.297 297.284 185.21 297.685C185.123 298.086 184.989 298.459 184.807 298.806C184.629 299.147 184.401 299.46 184.123 299.742C184.082 299.783 184.05 299.831 184.027 299.886C184.005 299.94 183.973 299.988 183.932 300.029C183.59 300.398 183.168 300.676 182.667 300.863C182.17 301.046 181.671 301.137 181.17 301.137C180.509 301.137 179.937 301.016 179.454 300.774C178.976 300.533 178.606 300.2 178.347 299.776C178.087 299.353 177.957 298.867 177.957 298.32C177.957 297.901 178.046 297.532 178.224 297.213C178.406 296.894 178.654 296.595 178.969 296.317C179.288 296.039 179.652 295.759 180.062 295.477ZM194.768 297.097H192.108V296.023H194.768C195.283 296.023 195.7 295.941 196.019 295.777C196.338 295.613 196.57 295.385 196.716 295.094C196.866 294.802 196.941 294.469 196.941 294.096C196.941 293.754 196.866 293.433 196.716 293.132C196.57 292.831 196.338 292.59 196.019 292.407C195.7 292.22 195.283 292.127 194.768 292.127H192.416V301H191.097V291.047H194.768C195.52 291.047 196.155 291.177 196.675 291.437C197.194 291.696 197.589 292.056 197.857 292.517C198.126 292.972 198.261 293.494 198.261 294.082C198.261 294.72 198.126 295.265 197.857 295.716C197.589 296.167 197.194 296.511 196.675 296.748C196.155 296.98 195.52 297.097 194.768 297.097ZM207.835 291.047V301H206.509L201.498 293.323V301H200.179V291.047H201.498L206.529 298.744V291.047H207.835ZM217.778 296.044V299.688C217.655 299.87 217.459 300.075 217.19 300.303C216.922 300.526 216.55 300.722 216.076 300.891C215.607 301.055 215.001 301.137 214.258 301.137C213.652 301.137 213.093 301.032 212.583 300.822C212.077 300.608 211.637 300.298 211.264 299.893C210.895 299.482 210.607 298.986 210.402 298.402C210.202 297.814 210.102 297.149 210.102 296.406V295.634C210.102 294.891 210.188 294.228 210.361 293.645C210.539 293.061 210.799 292.567 211.141 292.161C211.482 291.751 211.902 291.441 212.398 291.231C212.895 291.017 213.465 290.91 214.107 290.91C214.868 290.91 215.504 291.042 216.015 291.307C216.53 291.566 216.931 291.926 217.218 292.387C217.509 292.847 217.696 293.371 217.778 293.959H216.459C216.4 293.599 216.281 293.271 216.104 292.975C215.93 292.678 215.682 292.441 215.358 292.264C215.035 292.081 214.618 291.99 214.107 291.99C213.647 291.99 213.248 292.075 212.911 292.243C212.574 292.412 212.296 292.653 212.077 292.968C211.858 293.282 211.694 293.663 211.585 294.109C211.48 294.556 211.428 295.06 211.428 295.62V296.406C211.428 296.98 211.494 297.493 211.626 297.944C211.763 298.396 211.956 298.781 212.207 299.1C212.458 299.414 212.756 299.653 213.103 299.817C213.453 299.981 213.841 300.063 214.265 300.063C214.734 300.063 215.115 300.025 215.406 299.947C215.698 299.865 215.926 299.77 216.09 299.66C216.254 299.546 216.379 299.439 216.466 299.339V297.11H214.162V296.044H217.778Z" fill="#707683"/>
<defs>
<clipPath id="clip0_1329_16637">
<rect width="214" height="258" fill="white" transform="translate(2.5)"/>
</clipPath>
</defs>
</svg>
